<svg width="256" height="296" viewBox="0 0 256 296" fill="none" xmlns="http://www.w3.org/2000/svg">
  <!-- Hexagon background with Elixir purple gradient -->
  <defs>
    <linearGradient id="hexGradient" x1="0%" y1="0%" x2="100%" y2="100%">
      <stop offset="0%" style="stop-color:#4e2a8e;stop-opacity:1" />
      <stop offset="100%" style="stop-color:#6b46c1;stop-opacity:1" />
    </linearGradient>
    <linearGradient id="duckGradient" x1="0%" y1="0%" x2="100%" y2="100%">
      <stop offset="0%" style="stop-color:#ffd700;stop-opacity:1" />
      <stop offset="100%" style="stop-color:#ffa500;stop-opacity:1" />
    </linearGradient>
  </defs>

  <!-- Hexagon shape -->
  <path d="M128 0 L256 74 L256 222 L128 296 L0 222 L0 74 Z" fill="url(#hexGradient)"/>

  <!-- Duck silhouette integrated with database elements -->
  <g transform="translate(128, 148)">
    <!-- Duck body -->
    <ellipse cx="0" cy="10" rx="45" ry="38" fill="url(#duckGradient)"/>

    <!-- Duck head -->
    <circle cx="-20" cy="-15" r="22" fill="url(#duckGradient)"/>

    <!-- Duck beak -->
    <path d="M-38,-15 Q-52,-15 -52,-15 Q-52,-12 -38,-12 Z" fill="#ff8c00"/>

    <!-- Duck eye -->
    <circle cx="-25" cy="-18" r="3.5" fill="#1a1a1a"/>
    <circle cx="-24" cy="-19" r="1.5" fill="#ffffff"/>

    <!-- Duck tail -->
    <path d="M35,5 Q50,-5 50,10 Q50,20 38,20 Z" fill="#ff8c00"/>

    <!-- Database cylinder layers (integrated into body) -->
    <g opacity="0.3">
      <ellipse cx="0" cy="-5" rx="35" ry="8" fill="none" stroke="#ffffff" stroke-width="2"/>
      <ellipse cx="0" cy="5" rx="35" ry="8" fill="none" stroke="#ffffff" stroke-width="2"/>
      <ellipse cx="0" cy="15" rx="35" ry="8" fill="none" stroke="#ffffff" stroke-width="2"/>
    </g>

    <!-- Elixir drop accent -->
    <path d="M50,-35 Q50,-25 45,-18 Q40,-11 35,-11 Q30,-11 27,-15 Q24,-19 24,-25 Q24,-35 35,-50 Q45,-42 50,-35 Z"
          fill="#c1a7e2" opacity="0.8"/>
    <circle cx="32" cy="-22" r="2" fill="#ffffff" opacity="0.6"/>
  </g>

  <!-- Hexagon border -->
  <path d="M128 0 L256 74 L256 222 L128 296 L0 222 L0 74 Z"
        fill="none" stroke="#ffffff" stroke-width="3" opacity="0.3"/>
</svg>
